<svg xmlns="http://www.w3.org/2000/svg" viewBox="0 0 1200 630" role="img" aria-label="matchaxmoxie miss sunny classroom archive">
  <rect width="1200" height="630" fill="#FFF9E6"/>
  <rect x="40" y="40" width="1120" height="550" fill="none" stroke="#2E86DE" stroke-width="6" stroke-dasharray="12 8"/>
  <rect x="120" y="120" width="360" height="240" fill="#2C3E50"/>
  <rect x="150" y="160" width="300" height="8" fill="#FFF9E6"/>
  <rect x="150" y="200" width="220" height="8" fill="#FFF9E6"/>
  <rect x="150" y="240" width="260" height="8" fill="#FFF9E6"/>
  <polygon points="900,100 980,260 820,260" fill="#FFD93D"/>
  <rect x="870" y="260" width="60" height="20" fill="#FFD93D"/>
  <rect x="560" y="180" width="80" height="80" fill="#E74C3C"/>
  <rect x="580" y="200" width="12" height="12" fill="#27AE60"/>
  <rect x="610" y="210" width="10" height="10" fill="#27AE60"/>
  <text x="600" y="440" text-anchor="middle" font-family="Georgia, serif" font-size="72" font-weight="700" fill="#1A1A2E">matchaxmoxie</text>
  <text x="600" y="510" text-anchor="middle" font-family="Georgia, serif" font-size="28" fill="#2E86DE">girls who code roots · miss sunny classroom · winding down</text>
  <polygon points="100,500 110,530 90,530" fill="#FFD93D"/>
  <polygon points="1080,480 1090,510 1070,510" fill="#FFD93D"/>
</svg>
